<svg xmlns="http://www.w3.org/2000/svg" width="24" height="24"><defs><filter id="a" width="1.054" height="1.124" x="-.027" y="-.062" style="color-interpolation-filters:sRGB"><feGaussianBlur stdDeviation=".226"/></filter></defs><path fill="param(fill) #95b2fb" fill-opacity="param(fill-opacity)" stroke="param(fill) #95b2fb" d="M5.607 9.2c-.837 0-1.505.177-1.98.562-.267.197-.476.592-.756 1.156l-.016.124 1.853.221.06-.14.155-.148c.089-.144.247-.12.717-.12.278 0 .464.049.563.114.098.066.136.133.136.284 0 .16-.038.223-.162.29a.407.407 0 0 0-.05.03c-.024.01-.122.043-.266.074-.148.032-.348.068-.598.108H5.26l-.625.11c-.616.106-1.102.33-1.433.685-.333.355-.496.835-.496 1.402 0 .554.156 1.023.476 1.367v.002h.002c.398.416.929.627 1.543.627.628 0 1.2-.281 1.719-.734.035.132.038.275.115.39l.06.088h1.993v-.472a8.524 8.524 0 0 1-.121-.12v-.002l-.004-.002a.697.697 0 0 1-.23-.525v-3.328c0-.659-.232-1.198-.692-1.543-.46-.346-1.118-.5-1.961-.5zm.732 3.726v.163c.002.147-.016.294-.05.437v.002c-.063.274-.174.457-.33.578-.153.121-.363.188-.653.188a1.067 1.067 0 0 1-.25-.026.545.545 0 0 1-.303-.175.484.484 0 0 1-.091-.315l.027-.217c.052-.164.248-.318.703-.414l.53-.1c.18-.035.286-.08.417-.12zm13.608-3.728c-.613 0-1.153.13-1.61.395h-.002c-.947.557-1.42 1.6-1.42 3.025 0 .706.128 1.322.387 1.844.49.978 1.4 1.486 2.623 1.486.555 0 1.057-.122 1.496-.37h.002c.764-.437 1.207-1.177 1.309-2.14l.023-.219H20.89l-.04.149c-.042.168-.09.312-.141.432-.17.352-.391.494-.774.494a.898.898 0 0 1-.435-.11h-.002c-.405-.214-.627-.7-.627-1.566 0-.57.096-1.02.275-1.36.154-.278.382-.406.789-.406h.1l.27.059c.23.081.427.338.544.873l.035.158h1.867a10.93 10.93 0 0 0-.087-.682v-.007a3.075 3.075 0 0 0-.334-.866l-.002-.002-.002-.003c-.487-.785-1.31-1.184-2.38-1.184zM9.863 7.202v8.49h1.953v-.36c.387.368.857.618 1.455.618.68 0 1.288-.27 1.785-.783l.002-.002h.002c.624-.663.934-1.54.934-2.592 0-.884-.226-1.665-.682-2.322v-.002h-.002a2.54 2.54 0 0 0-.28-.328 2.45 2.45 0 0 0-1.761-.723c-.596 0-1.066.25-1.453.621V7.202Zm3.064 3.697a.89.89 0 0 1 .56.197c.358.295.548.77.548 1.489 0 .388-.07.724-.203 1.011-.23.465-.506.653-.907.653a.812.812 0 0 1-.521-.17l-.002-.002-.004-.002c-.38-.271-.582-.755-.582-1.526a2.644 2.644 0 0 1 .072-.625l.123-.357c.223-.476.499-.668.916-.668z" style="stroke-width:.6;stroke-dasharray:none;filter:url(#a)"/><path fill="param(fill) #95b2fb" fill-opacity="param(fill-opacity)" d="M5.337 9.295c-.837 0-1.505.177-1.98.562-.267.197-.476.592-.756 1.156l-.016.124 1.853.221.06-.14.155-.148c.089-.144.247-.12.717-.12.278 0 .464.049.563.114.098.066.136.133.136.284 0 .16-.038.223-.162.29a.407.407 0 0 0-.05.03c-.024.01-.122.043-.266.074-.148.032-.348.068-.598.108H4.99l-.625.11c-.616.106-1.102.33-1.433.685-.333.355-.496.835-.496 1.402 0 .554.156 1.023.476 1.367v.002h.002c.398.416.929.627 1.543.627.628 0 1.2-.281 1.719-.734.035.132.038.275.115.39l.06.088h1.993v-.472a8.524 8.524 0 0 1-.121-.12v-.002l-.004-.002a.697.697 0 0 1-.23-.525v-3.328c0-.659-.232-1.198-.692-1.543-.46-.346-1.118-.5-1.961-.5zm.732 3.726v.163c.002.147-.016.294-.05.437v.002c-.063.274-.174.457-.33.578-.153.121-.363.188-.653.188a1.067 1.067 0 0 1-.25-.026.545.545 0 0 1-.303-.175.484.484 0 0 1-.091-.315l.027-.217c.052-.164.248-.318.703-.414l.53-.1c.18-.035.286-.08.417-.12zm13.608-3.728c-.613 0-1.153.13-1.61.395h-.002c-.947.557-1.42 1.6-1.42 3.025 0 .706.128 1.322.387 1.844.49.978 1.4 1.486 2.623 1.486.555 0 1.057-.122 1.496-.37h.002c.764-.437 1.207-1.177 1.309-2.14l.023-.219H20.62l-.04.149c-.042.168-.09.312-.141.432-.17.352-.391.494-.774.494a.898.898 0 0 1-.435-.11h-.002c-.405-.214-.627-.7-.627-1.566 0-.57.096-1.02.275-1.36.154-.278.382-.406.789-.406h.1l.27.059c.23.081.427.338.544.873l.035.158h1.867a10.93 10.93 0 0 0-.087-.682v-.007a3.075 3.075 0 0 0-.334-.866l-.002-.002-.002-.003c-.487-.785-1.31-1.184-2.38-1.184zM9.593 7.297v8.49h1.953v-.36c.387.368.857.618 1.455.618.68 0 1.288-.27 1.785-.783l.002-.002h.002c.624-.663.934-1.54.934-2.592 0-.884-.226-1.665-.682-2.322v-.002h-.002a2.54 2.54 0 0 0-.28-.328 2.45 2.45 0 0 0-1.761-.723c-.596 0-1.066.25-1.453.621V7.297Zm3.064 3.697a.89.89 0 0 1 .56.197c.358.295.548.77.548 1.489 0 .388-.07.724-.203 1.011-.23.465-.506.653-.907.653a.812.812 0 0 1-.521-.17l-.002-.002-.004-.002c-.38-.271-.582-.755-.582-1.526a2.644 2.644 0 0 1 .072-.625l.123-.357c.223-.476.499-.668.916-.668z" style="stroke:none"/><path fill="param(outline) #2e3436" fill-opacity="param(outline-opacity)" d="M3.71 7.793c-.837 0-1.505.177-1.98.562-.267.197-.476.592-.756 1.156l-.016.124 1.853.221.06-.14.155-.148c.089-.144.247-.12.717-.12.278 0 .464.05.563.114.098.066.136.133.136.284 0 .16-.038.223-.162.29a.407.407 0 0 0-.05.03c-.024.01-.122.043-.266.074-.148.032-.348.068-.598.108h-.002l-.625.11c-.616.106-1.102.33-1.433.685-.333.355-.496.835-.496 1.402 0 .554.156 1.023.476 1.367v.002h.002c.398.416.929.627 1.543.627.628 0 1.2-.28 1.719-.734.035.132.038.275.115.39l.06.088h1.993v-.472a8.524 8.524 0 0 1-.121-.12v-.002l-.004-.002a.697.697 0 0 1-.23-.525V9.836c0-.659-.232-1.198-.692-1.543-.46-.346-1.118-.5-1.961-.5zm.732 3.726v.163c.002.147-.016.294-.05.437v.002c-.063.274-.174.457-.33.578-.153.121-.363.188-.653.188a1.067 1.067 0 0 1-.25-.026.545.545 0 0 1-.303-.175.484.484 0 0 1-.091-.315l.027-.217c.052-.164.248-.318.703-.414l.53-.1c.18-.035.286-.08.417-.12zM18.05 7.791c-.613 0-1.153.13-1.61.395h-.002c-.947.557-1.42 1.6-1.42 3.025 0 .706.128 1.322.387 1.844.49.978 1.4 1.486 2.623 1.486.555 0 1.057-.122 1.496-.37h.002c.764-.437 1.207-1.177 1.309-2.14l.023-.219h-1.864l-.04.15c-.042.167-.09.311-.141.431-.17.352-.391.494-.774.494a.898.898 0 0 1-.435-.11h-.002c-.405-.214-.627-.7-.627-1.566 0-.57.096-1.02.275-1.36.154-.278.382-.406.789-.406h.1l.27.06c.23.08.427.337.544.872l.035.158h1.867a10.93 10.93 0 0 0-.087-.682v-.007a3.075 3.075 0 0 0-.334-.866l-.002-.002-.002-.003c-.487-.785-1.31-1.184-2.38-1.184zM7.966 5.795v8.49h1.953v-.36c.387.368.857.618 1.455.618.68 0 1.288-.27 1.785-.783l.002-.002h.002c.624-.663.934-1.54.934-2.592 0-.884-.226-1.665-.682-2.322v-.002h-.002a2.54 2.54 0 0 0-.28-.328 2.45 2.45 0 0 0-1.761-.723c-.596 0-1.066.25-1.453.621V5.795zm3.064 3.697a.89.89 0 0 1 .56.197c.358.295.548.77.548 1.49 0 .387-.07.723-.203 1.01-.23.465-.506.653-.907.653a.812.812 0 0 1-.521-.17l-.002-.002-.004-.002c-.38-.27-.582-.755-.582-1.526a2.644 2.644 0 0 1 .072-.625l.123-.357c.223-.476.499-.668.916-.668Z" style="stroke:none"/></svg>
