<svg xmlns="http://www.w3.org/2000/svg" width="24" height="24"><path d="M7.803 8.003H5.184v2.619H3.702V8.003H1.084V6.52h2.618V3.902h1.483v2.619h2.618v1.482zM7.947 20.713 1.329 17.8v-1.39l6.618-2.911v1.646l-4.58 1.958 4.58 1.954Z"  fill="param(fill) #2e3436" fill-opacity="param(fill-opacity)" style="stroke:none"/><path d="M12.195 4.094c-.865 0-1.555.183-2.047.581-.276.204-.492.611-.781 1.194l-.016.129 1.915.229.06-.146.162-.152c.091-.15.255-.125.74-.125.288 0 .48.05.582.119.102.067.142.137.142.292 0 .166-.04.232-.168.301a.42.42 0 0 0-.052.03c-.025.01-.126.045-.275.077-.153.033-.36.07-.618.111h-.002l-.646.115c-.637.109-1.138.34-1.481.707-.344.367-.513.864-.513 1.45 0 .572.161 1.056.492 1.412v.002h.002c.412.43.96.648 1.595.648.65 0 1.24-.29 1.777-.759.036.137.04.285.119.404l.062.09h2.06v-.488a8.775 8.775 0 0 1-.126-.123v-.002l-.004-.002a.721.721 0 0 1-.236-.543v-3.44c0-.68-.24-1.237-.717-1.594-.475-.358-1.156-.517-2.026-.517Zm.757 3.851v.168c.001.153-.017.304-.053.452v.002c-.065.284-.18.472-.339.598-.16.125-.376.193-.676.193a1.103 1.103 0 0 1-.259-.026.564.564 0 0 1-.313-.181.5.5 0 0 1-.094-.325l.028-.225c.054-.17.257-.329.727-.428l.549-.102c.186-.037.294-.083.43-.126zM19.757 13.621c-.633 0-1.191.136-1.663.408h-.002c-.98.577-1.468 1.654-1.468 3.127 0 .73.132 1.366.4 1.906.506 1.011 1.447 1.536 2.711 1.536.574 0 1.093-.126 1.546-.382h.002c.79-.452 1.248-1.217 1.353-2.212l.024-.226h-1.928l-.04.153a2.887 2.887 0 0 1-.147.446c-.174.365-.404.511-.8.511a.928.928 0 0 1-.45-.113h-.002c-.418-.222-.648-.723-.648-1.619 0-.589.1-1.055.285-1.405.159-.287.394-.42.815-.42h.103l.279.06c.24.085.442.35.563.903l.036.164h1.93a11.297 11.297 0 0 0-.09-.705v-.008a3.178 3.178 0 0 0-.346-.894l-.002-.002-.002-.004c-.503-.811-1.354-1.224-2.458-1.224zM16.593 2.029v8.775h2.019v-.372c.4.38.886.638 1.504.638.703 0 1.331-.28 1.845-.81l.002-.001h.002c.645-.685.965-1.591.965-2.679 0-.914-.234-1.72-.705-2.4v-.002h-.002a2.626 2.626 0 0 0-.288-.34 2.533 2.533 0 0 0-1.821-.746c-.616 0-1.102.258-1.502.642V2.029Zm3.168 3.821c.21 0 .415.07.579.204.37.304.565.796.565 1.538 0 .402-.072.75-.21 1.046-.236.48-.522.674-.936.674a.839.839 0 0 1-.54-.176l-.001-.002-.005-.002c-.391-.28-.601-.78-.601-1.576a2.733 2.733 0 0 1 .075-.646l.127-.37c.23-.492.515-.69.947-.69Z" fill="param(fill) #2e3436" fill-opacity="param(fill-opacity)" style="stroke:none"/></svg>
